<mxfile host="65bd71144e">
    <diagram id="bHNZIlmV_CARgUxvY7vC" name="Page-1">
        <mxGraphModel dx="1244" dy="629" grid="1" gridSize="10" guides="1" tooltips="1" connect="1" arrows="1" fold="1" page="1" pageScale="1" pageWidth="1654" pageHeight="1169" math="0" shadow="0">
            <root>
                <mxCell id="0"/>
                <mxCell id="1" parent="0"/>
                <mxCell id="2" value="Blockchain" style="aspect=fixed;html=1;points=[];align=center;image;fontSize=12;image=img/lib/azure2/blockchain/Azure_Blockchain_Service.svg;" vertex="1" parent="1">
                    <mxGeometry x="1085" y="200" width="120" height="120" as="geometry"/>
                </mxCell>
                <mxCell id="3" value="Zorkrates Service" style="shape=image;verticalLabelPosition=bottom;labelBackgroundColor=none;verticalAlign=top;aspect=fixed;imageAspect=0;image=data:image/png,iVBORw0KGgoAAAANSUhEUgAAAMgAAADICAMAAACahl6sAAAAh1BMVEX///8CAgL8/Pz39/cGBgYKCgr19fXx8fESEhLt7e1FRUW/v7/n5+cODg7FxcWwsLAXFxc0NDR1dXUiIiJmZmbMzMzZ2dl7e3tubm6fn5+1tbVXV1csLCxMTEw6OjphYWGbm5uIiIiQkJDg4OAlJSWEhISWlpanp6c+Pj5aWlrV1dUtLS1JSUnXnSP/AAATSklEQVR4nO1dZ3uyTBNlKAJSpQqISlFs///3vTO7gGg0iSbB+3kvz5doomaHnXKmLArCG2+88cYbb7zxxhtvvPHGG2+88cYb/wImYRLPg1Uw3yS29OrFPA91rQFCVoD9yMNXL+hx6Ic0KaZs/bCVBDGMF/Rwrr56Yd+G6MTZzJVhgNWB/aVqVgr4ZfXiBX4HplGsfLZ2xfUXx9lyN833QZGK/QvWuEn+Ki4a85Xr/AIV1yRlGtv6/Vc5Lt+mYryFPQSxOaFFK1n5uW+K4oMYll5W/7OSBHSVd9GXr1vCNKWf1Qm8P1/U43DQJS2L7zjXKgfQjnkwn/6LexLj4pzvvniSeqcFDyzffs84EPePr0myN+jefPHrV46HyQrgaD/+PrFau7tP3NvYSNGdPrseB6b/zJ5EqO2LB3nHqgvuOkb9X1/RUxAb1PTV5MF3+fKe/LS6JuNa//6qHoe5Q4N1HtYOyZjCcTXXOBF4wrx+HRgL5OeY+cbqKeXslxf1BDB81M+GAjFqkKlMkapA/mrXhaYa//hDJo4G2S8s5icwQfmN5HUNcPiFj/kBKsh/4VMO0kZ+8ZZsIPn5h9hKKJSwemldooZfsNIc0O350Pz8k56GAZvn35yw4LP1RE3GcFrC7HVURTpOf/BuN8eVm/K6giM+CwHK31rXw5j/SB0UwICeylIIO4HIo/YyRp+Cqwpr/9m3a5TobmeCzQQpwIHsRfY+gzlSlKf9rwsLdHsZClLjMw+kI6S/uLrvowEtEuPn/S+SZlWIcxREmZAgagGn31zfdxG6biWufpCqzgC2QqHpJpCpxRBOFq/YEt3CZSC1eN7/ngCWQgKBcCSmVeLHHX6FJzwID052YIH2fBmXUqoikuVDKisGKirq1QkfjIxQDqoFgPt1Oe4uYspEmg3uggeyYbpgkLn84AOfQlCrqOM/4vAJCeJLM0gkFx2Xg4qGlOfnWcFDiCyX8jvNDP2nK2w2b5yoO5gbLmwOAJkao2S/uc6voPpQBzmuwrTge0YiSR+8m8Rq8kppniCe5EyqZaShzY8I5BMq+hlXauAbgb0qcw1XvLzmMwVP2BthCanKyxBBPG7+PieCtwIHH3xVlJo0p751tTEnenXoK0c6rz64zsFSwi1/CSbwv5DhfBu+NkHNWFBQ+9xfqo0P15D7nZm3vzkd8XrE/QvGa5fqRLIa2CNfusHjTS9rpZvsLgQI6qvij8F6o0zDEvJYLeZjyYH+xsBchDxlcq4wSlXoJGUcnEhhjl6oqvZ0KEegU5/Xdpp1vyMSbZcWpT4rNuKW+EwY99Gy5dNYWyJFgXX3fGJs9scPKnQJf5tGHxxXyTZINX3apQgdQsi812gZ1qZmTKmLINVHO7gjzPyq6KMzP7ATHYCIeD1uMmnjcSxBgqmgK9DauVTgAuppVn8hxfK0wGUv4oumNPdVibgh8oma6Jo2ybYeSZBpQLy3FcRTVtTFNRdfCIKKP7GLHbibYeGFmRHqVYDpADmxGcoEozmuxYZRVy4Ib6irN2zE3w11LuHcA036qGOC3BbkGOGyBGTwEXfAtkrOYiTGZTUT91IBttqFFsXbJqxw4WJqDX7tZutKkLaZ5S4Vqw17OmuJ4ksbSSjwJVAIBv5qN4ocFYQe/ft99wtMFC8w6DkHl39R4gkPH30+xtwUb3dtoU4px0I/oowiSAIO9zZnOZTZcLmDiHZQrvWtjET0tj3HbVr7iUv83KV4WnCnPEqboYtzi1aOPSjpabjYYUG6keEa+Jtzi0qk6QHq+piTFX6itBNSvCjaGGRe7C5yS3wzjCjhxUovMu/0QhIlJ+uSB6FRVdBrHeQ8RM/got7aHz7hr1D1xsuebslYvAtBLidMkl6SY2yLQpRf9XED8DC0H+lVuDV4XfbZODMqdrcu+rcCJhKKGV1YgnuVa6VtrNy1HCq6jBJ6rHc0GI2rkuVqNg6V79XIomfogk6kXQN8iGZiZ1XKnXZOG2/W6UwocH+1L5KDX4LeqQrbkZJc6UUUuVHpUudsy6zdbTpo8jcuMLZ7LtiTsSL7fCgIboYnNgOidTtlFG3H+Mh+Wzgw29HVmSlsn3WAcaYEOyNhxn7ka4/WrfrsnnCcCRxa+sguj8oCywiQWtNm7jdM7ZBdP4NiohI/EwASXLjqdpLYJre+EYCKRFZxUe+optN9aTwXkG0Q2ryXeYScSnWjALWImMWvRS2VWVu/JQMW98fYoyXA/XlE8WCEj009saJcfhZkrEnHOdgoiH/bIs09mZCyMh61lnM9aLSCUAy6fvey9aWT5YPDS0kvxzgkXqBaZ2SzcsFHqAMFgdpjl9bYfKtX0Fv7eFXTBNzjncB3lWLB1KScRPmiwCMZ89ox+zeN1lpgydBNOiRe51Es+2quCfEV1CVb/TmS/Mmqb8DBf2bdsOVD6F3LgZKYrMs2v980tRd8G0KDV2LGGxxIAbY3ir7hRykIDnHzz2pVbq9PBXs03tSpAScxEpqrYrN5q2pq5ezkCA2cb+9c6Ii/koIgvxTj9RVsZiDLy+TigKxlmaTNNg722RxZjDyL7S4uiiUaT34zsqhT0Bo9AAVfK9LmxOONpISUc6vypXPJ4Ty4QPWs/LLOu7nnjQKgMQGDe49pX9IYBQfivcXlUD+uxO9T3Nkuvg4dEgoq3+LG9ZSCTcUd23zM7ghqNbLTiaUM+VTogvI5sZA8+IQNimhOJpvSHHNkINpRsXYYf0P5G0yP6sV3e7Zc85qxciqO6kj/cuAlD2ikS2aj6+l9rljhq+Q7wU4nD7fRve90iX8PpiUK3sBLRhZ0sxf1Z+k26t8VjxLnbQ7ldP561KMLOpKI/YA0EgEP2KMKlM+cZ2VdTSrnXZutK2iMO9ioojrbZ6MU/X66xuOkSj8YSRGcTvOtcZlhJTKsB09L8Pnf9Z5njToeNLksMjd9cbGRT2K1OQ37O8psbgw2qcrW5yem1U536n27yx11FEW8TEayTrGQYYTxB/5Lsw23PyfBC8JMatO/dNzhIPFCA3StZYTiDjfgJm+Ub6+vgHlkNUPFUsY9v6teNDim3Qmr+U0hPnFGBzk40Eeds/WxyictkK9Wghry0IVLkZmFbD6Rg7UJPyKt0F+vBLGqKp4ij3y8MoVaXEJbRitberT9VI67bnXTjkVGVPy1xgzrAsWNVIi2G+5xdnCkf+98Lsfd4uFk1rrg/T0F/ENk7uCJy+3lq8GHu2vUWx9cfLJtf4V6WCzdMtIbfyHHJxN+IT9yTao58hES/UYvR/tKkC8rI5vxBdnecC7l1brroEgcZ+t1o2fKJFkMZGmYyejzQdjYj69ay1vt/MGIg3wa3JfiMGdTHFPkh4PrXcrsb6DEHRdjTZdxJ8qlm32YSa9cs6vonNIvPWGxG1CuhpV3qX7iN/zXIbgZWKMehalu1GbpbE47P5N96CiQIyiklSSd29aRyz8px+hRF7TBJZQHa1zua1wQCZGebKkyRAkgWMnHi0ozN1tJFAJl08d3tmLVF5lt+ZijBAlVlEY9jehcUFSdSo4ZWwB122+yQ5GOaLAe6lXtbcVyGXC7VotX/8WC7yFhzqUzBJMEidlEu4fX9nYTkRJB0wWtuGJcDi+IZ3OfhRJpN2YtCLU5EaRVV0eTXJGi83TCbOEO6StwpzyoP7RJSA3XaCZp7JtUc52NmlaV0CB1Z4IYqSAoqSChVq1JkHsdmhR55Uy70+5B3luLfkw7uv6D5d5HAduCAgP6Hh9V319IXujQiKunXFZJ1XndnpmqYC+tuNaJretS1x37Irq5cN0oVG43wf4MBdAtgjxcnkbGu4Ktr9gxFVYuD62Z/r63mOOJOzPJWcY0z1FMYdatmppD0yMo1p2k5c+w7khgwWzCpvR2KhxLYXq/LRWzmC06NR10oTJwvT676QXUPLvU/n7xQ/DMI2XKTeFgTeTCawqhvt/YqIj8GkcUIDQ8XwkuysQeXhX8rOPYZ974mNOBOBdXaibZBknGJ5UDPTT6sUfrigmrU/GgaOtUHvsuAyy9NlmxgQcyioSKuqSybZh5A3Eko7v088GAxsckQPJxU1bjDPsOwAb/UISoJsa0KtSKyPqJDZemLijTVv8rz+oSqgk+OhaHKMFArnwImuIeMmmrjHmUhwO5E6PhIm8yLSdCafVJYEgnPmkjPHCDeM0pZNrtgzRtay5DJFYpea+4h1A6nLIo2BonaAItdRUpNTFQjuX50m/62mR6oye1bcjOXnAfDlSUc0pyQLdJImRnW0eucjIgoKhwSJqI/bETU3JB/kBk1K3rv+S2O6d+R/SI3XSnEkTt3KIRa3ALYpaiJ1uMKC7Osw+Y0irXF38FLzrKXnSCbJUZa44HjE4xHIokSnibBCOfz7cJTUhrV09DQAruyXTAR7LxDvFcAlMLZpmoYzk7mC4ni07HqxzknDkDkdzyMogbQWRlRL5yNh+AezIfpL7ZqL3cAcw2goTM0PlEEFqNzcOKQTFD6E9+Ultwdo4fOvvdChORc6lr9ar7HE7oXIRjkgtyuuo1UviNW7KrHLm0I3Y36Fy2MnGSz8c0LDNEBRPtbfVSQQQFKsFLiT/aHYtc0cDDwg1o9mRD+7PkYmg0ksEP7tCipR1oqX2ElYRyoum4ZOXZT24U8yO4EApZ0grCxrd4tk4GMCcbcttjn2XrdVnZi9xuyfzXBq27JS2ySZo36pnpAaZgiy6dwaHF8WHENWrNmg55wtQUvUxayLglVjcSxLoGJfPM5GkbWAp+tmyvwEQZtw40AKa7c1SHlM078HKpQRMR/CLTWLkBe8aK/Wy+KQxOLOfcWEKK747oSrzybVVJd8pqfEQwZzNvbHEe+FpbpW4PIm3IcMquQi8fkQ5WNWuZLrmGhTPhMOt6XLu89eavgC+TIKpMuXvm6zHtSNAcKr54pRBxz9qWSU02PinkbBEIZOFU35uEgpe1xsUOXb1KDpaaenSBNVGYbQVTgUYYng3dJtA3qpVlPpNxO4qmDSJoJFIso1ImfUd+5J7bGSlX+ZhYLd2rbIWWPOyGHg1Q/IuDPkz1JuzhktkV+bB+SvhldwWko6EB4yo8HYrkgAYZesjkiMP2gru7fiqVz2l7VPGuWl/GMPbtUM4oeWmrUdoEdbrsG7t5QKMYdKQhYtQEM6a8Kyycl07vmy+6g5ivcr+o5DWwYkHQ3k8kprSXX+80JPspWLBfQhs3Og6y7AShAOpJnV298P7F1RH8iC4xv9YNqbnKAkmowtIk83EndGh/IdGYR8dByJBYTGcqaSiwp9wY1q8RgsGsWYd9xbekYmclVDp8j0K0h3TRMemcFtpd4oT+DVYWVyZxzqP9YuxhmivYbBl227CVmZqv4tYDsYDi3ohzU3YbFyZI3A6fBN140egQ9chOm+0JrLUotp1PXnbz9hnPsLhj3YtCcuVZ0SOs6NYuaZiD4nVCj3/jTClcB8vBMFPfquUjY8Eq5R6I1xUVXXCviK0u46pPXL/aShZ6QH/U+Sap2c+uB7LcznGyn9LRllw2N8uCIWWz+fVxgAJdMeOZ/amSAxqWG4x2g5p0r9HtDrzNNnFSo0MGuwFzpUMMa8Xet564Zqu8vtjHk2Di0lfn9zmMluXOGERFosx81nzoYFQXHc4mpaP2idWdI6aXz65jhJcLExnqC0fAyebizxVM9zRtvw1vke0VTCflZaYqgRmdA/a6FMwmcUKze3ezp2nGK00y6IADKtif1unUTVYe7mUMlYIBjml73DVIbdi11GNNT6U29VIWudfodJ5dqq/PvAuU8QcUKXfXbm40BDzvVjdyV0clPWEXuJuS0c8uoiY7KO/UsSSarGGE4RVIQXakLW1BGwxsFxS66eLAOffDQ946m9Bc6j0XFZV4Aaz9Szgk3W2LtQDZeLwYoVeYVfxY4XkuxehqJoa9Nz+916cYxvha/3q2YAyAMWGqc+rLD2SxtEWoccucT6d0aS2JsPviGJXq4edl46fxlsqHtbzDntsC8WGqEVF9XmtdkdhWWJD7i5b7lT1X5Qzc9d8v/RKztlzSf+ETanhCIlHuxFUqUPvDfSVy9+8E8XSl7UfO5Isr1oJ8cNd6KK/LAGu1O41sCKtv3g3XzEf+4huz79jK1eWNRTC879uH89ZKZmKqvPJ+5J/C6MOEyu/zJU+7FHbf1VZcmqiHY2E2r7wd+VcIO0lsxhYVo58Ddli3ijARZCLrkvuiLtv30N2zqaSkvA77CMhL7eCpdJJpt1cFca8U/+6GIHjhh92lkJ0BacMGjTJlUIiVz/fB8Ee9w+czqLh2YUhnK05b/4UP85ylWWThifyKm0U/CIcN/nbVkPa+B5WYClloEoNpBBXFyf8D3yBIX2YFVtvbbcOfuFZMbvi10fjEJf8LONTQz2e0gkgZ7gQli8cG01ll/upvsPkmdCJ7PLE9cEHQ5rVSCzYOhkEIXlepfhhJl5S0O8JiCJV9D9b1uNk/jlLhVnK+yQnAUlVjWXtdvf05qHOwsujyPImsfOf7Hv85bOibEZdwgVd/u9NzCIcDjFyO/85X6V5CjJxNkO+Ovub6/tL7D3658RtvvPHGG2+88cYbb7zxxhtvvPHG/y3+B3e/FzbRMNeNAAAAAElFTkSuQmCC;" vertex="1" parent="1">
                    <mxGeometry x="765" y="200" width="120" height="120" as="geometry"/>
                </mxCell>
                <mxCell id="5" value="" style="shape=singleArrow;whiteSpace=wrap;html=1;strokeWidth=2;" vertex="1" parent="1">
                    <mxGeometry x="895" y="230" width="180" height="60" as="geometry"/>
                </mxCell>
                <mxCell id="7" value="Kafka" style="shape=image;verticalLabelPosition=bottom;labelBackgroundColor=none;verticalAlign=top;aspect=fixed;imageAspect=0;image=data:image/png,iVBORw0KGgoAAAANSUhEUgAAAOEAAADhCAMAAAAJbSJIAAAAh1BMVEX///8AAABTU1NOTk729vb7+/vu7u7z8/Po6Oj19fXi4uKzs7NLS0u4uLjU1NSvr6/j4+N1dXVdXV3a2to/Pz+Pj4+oqKi/v7/T09NqamozMzPKysoJCQmTk5MeHh5+fn6cnJw2NjYqKioUFBRkZGSGhoYbGxt4eHgmJiahoaEQEBA9PT1FRUX2l9uWAAAKLUlEQVR4nO2d53bqMAyACZCEQplhbyh00L7/891yC20kS7bDiGxOvp/FcKTasTWdUqmgoKCgoKCgoKCgoKCgoKCAJIw7rVYnDqXluA+15uorOPHZHdal5bk1zV6AqAyr0kLdkOES6/efwaMs19k7qd+RhrRsN2HP6vdNL5IW72qivk7BIDi0pCW8kppevyMjaRmvom5W0G8Vo62NhsFYWs7LebZSMAhiaUEvRbuLpnmWlvRCElsFg2AoLetlqGt03l18DBdvhIXj5bE4wlqUZ+ePWjv82UpS0ktBU7icpT9sTZGKHm42LahBBa3DsAw/X8hIeQ1wI+2rbkQFDNgKiHglxkVYhS6Hd8c+PCqa1BC4FXm3TIdgjdJjvtJjevnKdz2TtPRtekwzPWb5lK+AVwNOgxozCCxT3w79g3mRlkrA9fDMFQ7nNo8YWMqeuYlRWvYuN2qQHuVZVOoCDckTxV2qadkfcpWWXmx2GmDVJHmKdwPAadGhx4TpMd6dFmABMi58Oz3m3bcTH1htG3oMCBZ7Z7VB95A024DR5p/ljbwnwm6LDmCEbxtNqbQC8m+UpywEnkUwNf1eVK8nSZ2zcCVAUYw+2iqrUMFgrfutpL3rv57+E5XBzJW0Iw4mAptl9oI+5RPC0YeSG+i6ERBQoonPo1Ms42lWxp/tuV+JVnjoz2/NuC/kiRoRPvRWi8V+R0SEuWDimtTvSM+BWofro/q1zQVfyhPrzAxz2jcNX9vJbzmW2bVXeo1+GL/YFy9YifCOSUMf9vwj+MdGfBatstz0ttg2fzFwIfPYuVTBsZWCmvhBbtQ+9RK+00s05quMEEwsNkeqXZ18PcYr1H4J4oBfqVhov7xw0SdqjU573d3XQf37JFdlGNZk5d7rgt0JlaXdO1t84/0cf+ZEKLk6VI7GcptfXjM09jNtaUd4BTsxiSXl9K/oxvb0KmBbxxGnEaZ8g7JmKDpiVL8DzbEjAZAMGkJzjTJaoTlgjA/kQwYNYS0KGUftmYfkjr2GT2C3pJcgXMhuJHXsNYTSM+4DiDizEYJcsdcQbJVcoBgM0m7MuWGvIXCb1swgUHz8cgd5s2Ov4SI9jsu5PYEA3F0kzoq9hiBvyppkfY813D+8ho+/Sr3caeLZ6hVqOJ80OEsEmGR+nBYtrN5JyR2dfoCRZMaHdOnEb2miphviMQthIHlN/ijsxRG12upKEgbyheexgUeQ4WIL4zwnFlhelVXa8px9KZ9TLjz0gQW9p5oqL8Hrb0AxmlCfq95FYhqQFzjcwvKTRQoHzMcDw++KRTGGpLgkx82wSbfSHumldQjxyheLRJlTRylWSUX7+f68kqMh7tQQq+LIpKAF28lHe7gnOlKlplDJ4t8NoRxihgz3lQiVpYabvBSUagl7I6WZ7tuj2XjUGBgybhnQBSXvCZk6+kht+dHQ0MRuCdFOlQ9qg/OhgWUZGbug+fPxTFlKQcV4DnbEhhfS1U6/fBhT+XIZbiVDzdT26E6UydGlSLS5brnifqXQhxWFNVz7p/KFkC866gq6TPgqGk11FjOLqW/U6Iz+TjLxiwtMtE8L5T92oc8br/GedBjIVu2hWqatfr9TTo0vYnbqze7z9H+RwvvXbiheL42cBEMrDDbv1tzAMKrV6zUHSktQm0jwaRqPnlonKmP1oP3RuKWjenA3UoFakF9oHI+M9F0OIl4J3N0tOmGgaSNfbGgEbo4f5i/AM3ErXhRrBBZlWWwccDedu1FXoQM+hhbyou4gRwqcNEANLdbc0/LRNUT3Y/imocW1M9Gr1xpa2JDIUnd/p4GOgEVmDxo1HjTLQjvTwgiDvsjX/SW8FphAOpi/AP8lrhT8akAxDOODGMHxjlTD6kC3Xb6ZxiOH2Y3eST2o98C0+8PRBx9uNUNhUENQEwfTnplJrCWzUbs5SzoOWOY4RKgNYxA5qolyIlab3c9fg35bFg/UVHEYV3OGK2P/swZjxsoVhMFUuH0UFxxs2UM8ZIqJ3v/mfcyUc6wlV6vSkffJzCKn4De9n5VIl5/8/N8k77NRwtSv5PbRUWoO0qxCU6rceBDdj0iVZq/GhY1dsA1TQdVWzkonSn9e10CcuGF3ibKeg1h0P6S2yPmkmfzMZH00IcsxszMX8ya5tNl8OZ2+Kw2EV/AuZgNZ1CTeBrn4qvI+i3uBy/ryQ3sU3BLmIrH7E2dT0VBK/O38LxrNxsdObXWWW6dxlrqgpDTS/UeWf2fNSClilDNuqsZ5OTM9rrSQNwFWwLLFxSxSdVFHLK9v6Z2saM4Kxdcm1NFpKulN8ZcNpEjlpxKqGEyNSKI7U0Szqk+GwqfvCYR7YUOp9aLkh4VzFgG9e9LSnoyfSvqtiozaJfmr8B8ndmCcSFQn/QR9YxeMbNBR8xiMkb/fJB5WVGO0v2A8A7gEmZ8Ek+jEmxUiFI3o8ysLdDFwoTpg27uRCriww5IrBACB5/ldJM7KhX3AXCFAFZhAd5E4Kxf2AbOnuc99wGAO2TzGp8cagueQqxqDV2XdReKsXNjpzGXbwE1wtFWQN/Yagigp5/1ZtUPni72GMAPJxESBZ+ZGWtVewyrwHGjHAVp2blxYn+GOIegmkrYd9LIcyCmWMmkIm0+pJ3FtHCFABg1RKYBanoGqIRy4jPZIlvvakLuF25twg7ELZVTRQknETBd8zgHVfgfbtHVaw+6mA75TzIQyVmzSQUmdVpqniZqprY3SHr62a53zjagm222vu+sTWR3x6v5IG6fpM0vV+hppeZs0MfVJ0g5gdWOroHQLisV1wLT3YNsMLm2w4U0xg4p2l2pIlzJaXXZ9zXXX0k5FaJtgo7cb06Xz8jPIdOUTMIalaaGKnxPW19OwXYf6/Jz0LloqbRSZpt11o7HuEgkmzrRssGUpvEGUG0pX/mR8tqATpS6MreCq0nnTiXQF5hGU5F6CuGCCNyHePwibOK/9ojHacwQ9hWXshyNjTls0Eo1WlXOn86TtwvQdgQuR2C2hiuY3HkedeseJTuczcIqIbeEJFr85cXd8FuAiJYNhsHpUrrbpQkDDM5PfA36utAGWGRBqYPq7gFnGvE7HXUBc5uHfeMwmocGh6NlWY/cuWXCiuBGat+bx3wf8+O90fvz3coMePfYGFxCHc8XctGWTFp45LcB25N1pAbZJJrT9QG88Zq4yBvPsndUGI7pkhg8GAdb5yncDgPjkG49hlsW3jQbnVtTuHXR7EvPqbpdBiYcNyvLFKOC2lpDxSnCsExTyjnCU0I1yimwoAeFp8xxNHCnNveLh64sgUqPl/WCwJ/4+9+0w/MEy86SsYI+wbkL07rT/xbIJ8cXHbeaHeGOloX+H/R81m55f+SzZNVi8t9pvBb8XquHt40ufl+gJbfHPzs+DEDHmCxY8i6/xtMkrIubS1T43pakcjZW2v6cgTTRa/drb/be2fMnkXQjjZDxOYqk3GhQUFBQUFBQUFBQUFBQUFDwm/wDIYH+2LuA7UgAAAABJRU5ErkJggg==;" vertex="1" parent="1">
                    <mxGeometry x="445" y="200" width="120" height="120" as="geometry"/>
                </mxCell>
                <mxCell id="8" value="" style="shape=singleArrow;whiteSpace=wrap;html=1;strokeWidth=2;" vertex="1" parent="1">
                    <mxGeometry x="575" y="230" width="180" height="60" as="geometry"/>
                </mxCell>
                <mxCell id="15" value="&lt;font style=&quot;font-size: 18px&quot;&gt;Pre-Processing&lt;/font&gt;" style="text;html=1;strokeColor=none;fillColor=none;align=center;verticalAlign=middle;whiteSpace=wrap;rounded=0;labelBackgroundColor=none;" vertex="1" parent="1">
                    <mxGeometry x="440" y="130" width="130" height="30" as="geometry"/>
                </mxCell>
                <mxCell id="16" value="&lt;font style=&quot;font-size: 18px&quot;&gt;Processing&lt;/font&gt;" style="text;html=1;strokeColor=none;fillColor=none;align=center;verticalAlign=middle;whiteSpace=wrap;rounded=0;labelBackgroundColor=none;" vertex="1" parent="1">
                    <mxGeometry x="760" y="130" width="130" height="30" as="geometry"/>
                </mxCell>
                <mxCell id="17" value="&lt;font style=&quot;font-size: 18px&quot;&gt;Verification&lt;/font&gt;" style="text;html=1;strokeColor=none;fillColor=none;align=center;verticalAlign=middle;whiteSpace=wrap;rounded=0;labelBackgroundColor=none;" vertex="1" parent="1">
                    <mxGeometry x="1080" y="130" width="130" height="30" as="geometry"/>
                </mxCell>
                <mxCell id="18" value="" style="shape=curlyBracket;whiteSpace=wrap;html=1;rounded=1;flipH=1;labelBackgroundColor=none;fontSize=18;size=0.5;rotation=90;strokeWidth=5;" vertex="1" parent="1">
                    <mxGeometry x="662.5" y="147.5" width="20" height="455" as="geometry"/>
                </mxCell>
                <mxCell id="19" value="VOC engine" style="text;html=1;strokeColor=none;fillColor=none;align=center;verticalAlign=middle;whiteSpace=wrap;rounded=0;labelBackgroundColor=none;fontSize=18;" vertex="1" parent="1">
                    <mxGeometry x="620" y="400" width="110" height="30" as="geometry"/>
                </mxCell>
                <mxCell id="20" value="" style="shape=singleArrow;whiteSpace=wrap;html=1;strokeWidth=2;" vertex="1" parent="1">
                    <mxGeometry x="250" y="230" width="180" height="60" as="geometry"/>
                </mxCell>
                <mxCell id="21" value="" style="group" vertex="1" connectable="0" parent="1">
                    <mxGeometry x="40" y="205" width="210" height="110" as="geometry"/>
                </mxCell>
                <mxCell id="9" value="Sensor&amp;nbsp;" style="rounded=1;whiteSpace=wrap;html=1;" vertex="1" parent="21">
                    <mxGeometry width="120" height="60" as="geometry"/>
                </mxCell>
                <mxCell id="13" value="Sensor&amp;nbsp;" style="rounded=1;whiteSpace=wrap;html=1;" vertex="1" parent="21">
                    <mxGeometry x="10" y="50" width="120" height="60" as="geometry"/>
                </mxCell>
                <mxCell id="11" value="Sensor&amp;nbsp;" style="rounded=1;whiteSpace=wrap;html=1;" vertex="1" parent="21">
                    <mxGeometry x="80" y="15" width="120" height="60" as="geometry"/>
                </mxCell>
                <mxCell id="23" value="&lt;font style=&quot;font-size: 18px&quot;&gt;Data Generation&lt;/font&gt;" style="text;html=1;strokeColor=none;fillColor=none;align=center;verticalAlign=middle;whiteSpace=wrap;rounded=0;labelBackgroundColor=none;" vertex="1" parent="1">
                    <mxGeometry x="80" y="130" width="140" height="30" as="geometry"/>
                </mxCell>
            </root>
        </mxGraphModel>
    </diagram>
</mxfile>